<svg xmlns="http://www.w3.org/2000/svg" xmlns:xlink="http://www.w3.org/1999/xlink" version="1.1" id="Layer_1" x="0px" y="0px" viewBox="0 0 2142.5 2187.9" style="enable-background:new 0 0 2142.5 2187.9;" xml:space="preserve" width="40" height="40">
<style type="text/css">
  .st0{fill:#BA0C2F;}
  .st1{fill:#FFFFFF;}
</style>
<g>
  <g>
    <path class="st0" d="M1072.7,1989.8c443.2,0,667-356.6,667-356.6s-39.4-15.8-54.3-21.6c32.2-16,88.9-46.5,88.9-46.5    c180.8-345.6,78.3-714.2,78.3-714.2c-30.3,40.5-61.1,66.7-61.1,66.7c-38.9-225.5-131.8-355.8-131.8-355.8    c-43.7,262.5-155,454.3-155,454.3c124.7-467.9-42.5-693.2-42.5-693.2s-51.6,78-109.1,141.2c0,0-112.1-278.9-280.3-464.1    C904.4,185.1,792.3,464.1,792.3,464.1c-57.7-63.2-109.2-141.2-109.2-141.2s-167,225.4-42.4,693.2c0,0-111.1-191.9-155-454.3    c0,0-93.1,130.3-131.8,355.8c0,0-30.8-26.2-61.2-66.7c0,0-102.4,368.6,78.4,714.2c0,0,56.7,30.5,88.8,46.5    c-14.8,5.8-54.2,21.6-54.2,21.6S629.3,1989.8,1072.7,1989.8"/>
    <path class="st1" d="M1072.7,70.4c137.8,166.5,260.6,484.4,260.6,484.4c70.3-50.5,120.7-144.5,120.7-144.5    s181.9,400.5-148.4,932.2c0,0,313.5-292.7,368.2-672.9c0,0,63.8,110,73.8,318.6c0,0,28.5-5.4,81.5-56.5c0,0,49.1,290.6-94.1,599.7    c0,0-72.9,31.6-107,55.7c-8.3,5.7-19.9,17.3-3.2,27c11.6,6.9,46.5,30.5,46.5,30.5s-216.8,301.1-598.6,301.1    c-382,0-598.7-301.1-598.7-301.1s34.8-23.6,46.4-30.5c16.6-9.7,5.1-21.3-3.3-27c-34-24.1-107.1-55.7-107.1-55.7    c-142.9-309-93.9-599.7-93.9-599.7c53,51.2,81.4,56.5,81.4,56.5c10.2-208.5,73.9-318.6,73.9-318.6    c54.7,380.2,368.1,672.9,368.1,672.9C509.3,810.7,691.2,410.2,691.2,410.2s50.3,94.1,120.6,144.5    C811.9,554.8,934.6,236.9,1072.7,70.4"/>
    <path class="st0" d="M845.9,628.1l-2,4l-4.9-1c-75.9-35.7-131.6-101.8-139-126.8c-32.3,198.8-8.6,429.6,58.7,585.7    c52.3,121.6,99.9,234.7,149.9,298c52.6,66.5,94.4,119.3,95.3,188.2c15.9,1.4,32.8,2.2,51,2.8l-7.1-1398.5    C1047.7,180.6,893.9,449.8,845.9,628.1"/>
    <path class="st0" d="M346.4,1012.4c47.3,41.8,89.1,62.4,123.3,68l-0.7-0.9c-13.1-74.6-23.6-120.9-13.6-275.6    c53.7,206.8,141.9,310.7,182,373.5c72.7,114.4,158.2,175.4,221,238.9c59.6,60.6,103,104.5,106.1,155.4    c-315.4-43.3-605.3-288.3-617.8-533.5C346.7,1038.3,344.9,1023,346.4,1012.4"/>
    <path class="st0" d="M879.8,1684.8c44.1-14.3,72.6-42.2,81.6-78.9c-241.8-9.1-476.7-169.1-581.4-303.2    c9,36.7,47.2,151.1,69.7,195.9c30.4,12.5,151.5,62.7,163.4,98.2c5.2,15.4-40.3,45.2-61.3,49.3    C647.8,1721.9,809.9,1707.4,879.8,1684.8"/>
    <path class="st0" d="M1045.1,1903.7l6.6-291.7c-22.9-0.4-35.2-1.1-52.2-2.5c-30.7,129.1-234.6,153.7-361.9,136.8    C637.6,1746.3,811.9,1903.7,1045.1,1903.7"/>
    <path class="st0" d="M1299.2,628.1l2.2,4l4.8-1c75.7-35.7,131.5-101.8,139-126.8c32.3,198.8,8.5,429.6-58.7,585.7    c-52.2,121.6-99.8,234.7-149.7,298c-52.7,66.5-94.5,119.3-95.5,188.2c-15.9,1.4-32.7,2.2-51,2.8l7.1-1398.5    C1097.5,180.6,1251.4,449.8,1299.2,628.1"/>
    <path class="st0" d="M1798.8,1012.4c-47.2,41.8-89.1,62.4-123.3,68l0.7-0.9c13.1-74.6,23.7-120.9,13.6-275.6    c-53.8,206.8-142,310.7-182,373.5c-72.7,114.4-158.3,175.4-221.1,238.9c-59.7,60.6-103.1,104.5-106.3,155.4    c315.5-43.3,605.5-288.3,618-533.5C1798.5,1038.3,1800.3,1023,1798.8,1012.4"/>
    <path class="st0" d="M1265.4,1684.8c-44-14.3-72.7-42.2-81.6-78.9c241.7-9.1,476.9-169.1,581.3-303.2    c-8.9,36.7-47.1,151.1-69.5,195.9c-30.4,12.5-151.4,62.7-163.4,98.2c-5.3,15.4,40.2,45.2,61.3,49.3    C1497.4,1721.9,1335.3,1707.4,1265.4,1684.8"/>
    <path class="st0" d="M1100.1,1903.7l-6.8-291.7c23.1-0.4,35.5-1.1,52.3-2.5c30.8,129.1,234.7,153.7,361.9,136.8    C1507.5,1746.3,1333.3,1903.7,1100.1,1903.7"/>
  </g>
</g>
</svg>
